<?xml version="1.0" encoding="UTF-8" standalone="no"?>
<svg width="110px" height="98px" viewBox="0 0 110 98" version="1.1" xmlns="http://www.w3.org/2000/svg" xmlns:xlink="http://www.w3.org/1999/xlink">
    <defs></defs>
    <g stroke="none" stroke-width="1" fill="none" fill-rule="evenodd">
        <g transform="translate(-76.000000, -291.000000)" fill="#000000">
            <g transform="translate(76.000000, 291.000000)">
                <path d="M1.52777778,97.9479375 C2.34666667,98.153125 3.18388889,97.6784375 3.39777778,96.8638125 C6.545,85.094625 19.3355556,82.044375 26.9805556,80.219125 C28.8963889,79.7628125 30.4088889,79.4014375 31.3927778,78.97575 C40.1011111,75.1874375 42.9397222,69.0930625 43.7891667,64.6463125 C43.8930556,64.110375 43.7005556,63.559125 43.285,63.19775 C38.7505556,59.2746875 34.925,53.3855 32.5111111,46.61125 C32.4438889,46.4183125 32.3369444,46.2406875 32.1963889,46.0875625 C29.0033333,42.6085625 27.17,38.9305 27.17,35.9996875 C27.17,34.28775 27.8147222,33.1393125 29.2661111,32.272625 C29.7091667,32.0061875 29.9872222,31.537625 30.0086111,31.023125 C30.6838889,15.42275 41.7694444,3.142125 55.3666667,3.0625 C55.3819444,3.0625 55.6783333,3.0839375 55.6936111,3.0839375 C69.3580556,3.2738125 80.3733333,15.8178125 80.7675,31.6386875 C80.7797222,32.076625 80.9752778,32.487 81.3113889,32.76875 C82.2677778,33.5803125 82.7138889,34.6093125 82.7138889,36.0058125 C82.7138889,38.458875 81.4091667,41.4754375 79.0441667,44.4950625 C78.9311111,44.639 78.8455556,44.804375 78.7875,44.9789375 C76.3430556,52.7454375 71.9552778,59.602375 66.7547222,63.798 C66.3147222,64.15325 66.1069444,64.722875 66.2108333,65.2771875 C67.0602778,69.720875 69.8988889,75.8121875 78.6072222,79.606625 C79.6369444,80.05375 81.235,80.402875 83.2608333,80.8408125 C90.8294444,82.4823125 103.494722,85.2355 106.602222,96.8638125 C106.785556,97.54675 107.402778,97.9969375 108.075,97.9969375 C108.206389,97.9969375 108.337778,97.9785625 108.472222,97.944875 C109.288056,97.724375 109.770833,96.88525 109.553889,96.0675625 C105.963611,82.632375 91.6147222,79.5178125 83.9086111,77.8456875 C82.1211111,77.45675 80.5780556,77.1229375 79.8263889,76.7921875 C74.1430556,74.3176875 70.6413889,70.54775 69.4038889,65.568125 C74.6808333,61.0264375 79.0961111,54.0194375 81.62,46.1610625 C84.2997222,42.6698125 85.7725,39.0744375 85.7725,36.00275 C85.7725,33.9539375 85.1125,32.2450625 83.8047222,30.9098125 C83.0775,13.7475625 70.8583333,0.23275 55.6936111,0.0153125 L55.2383333,0.0091875 C40.3486111,0.0888125 28.0775,13.248375 27.005,30.1135625 C25.0922222,31.5223125 24.1205556,33.497625 24.1205556,36.0058125 C24.1205556,39.62875 26.1647222,43.9621875 29.7427778,47.9373125 C32.2147222,54.74525 36.0463889,60.7263125 40.6083333,64.91275 C39.3769444,69.91075 35.8722222,73.6929375 30.1766667,76.1705 C29.4402778,76.4920625 27.9736111,76.84425 26.2747222,77.2485 C18.5105556,79.09825 4.06388889,82.5435625 0.446111111,96.0736875 C0.229166667,96.891375 0.711944444,97.7274375 1.52777778,97.9479375 L1.52777778,97.9479375 Z"></path>
            </g>
        </g>
    </g>
</svg>