<?xml version="1.0" encoding="UTF-8" standalone="no"?>
<svg width="110px" height="98px" viewBox="0 0 110 98" version="1.1" xmlns="http://www.w3.org/2000/svg" xmlns:xlink="http://www.w3.org/1999/xlink">
    <defs></defs>
    <g stroke="none" stroke-width="1" fill="none" fill-rule="evenodd">
        <g transform="translate(-78.000000, -547.000000)" fill="#000000">
            <g transform="translate(78.000000, 547.000000)">
                <path d="M67.8944444,63.473375 C67.4147222,63.399875 66.9258333,63.58975 66.5958333,63.9480625 C66.2627778,64.3033125 66.1191667,64.7994375 66.2108333,65.28025 C67.0541667,69.720875 69.8927778,75.81525 78.6072222,79.6096875 C79.64,80.0568125 81.235,80.4059375 83.2577778,80.843875 C90.8294444,82.485375 103.491667,85.2355 106.602222,96.866875 C106.785556,97.5498125 107.402778,98 108.078056,98 C108.209444,98 108.340833,97.981625 108.475278,97.9479375 C109.291111,97.7274375 109.773889,96.8883125 109.556944,96.070625 C105.960556,82.6354375 91.6147222,79.520875 83.9055556,77.84875 C82.1211111,77.4598125 80.5780556,77.126 79.8233333,76.79525 C74.5861111,74.51675 71.2036111,71.13575 69.7369444,66.731875 C84.2875,67.816 90.8752778,62.0064375 91.1655556,61.7430625 C91.5261111,61.415375 91.7125,60.9284375 91.6575,60.4415 C91.6025,59.9545625 91.3213889,59.52275 90.8966667,59.27775 C82.5,54.469625 82.5,37.8555625 82.5,31.598875 C82.5,14.1028125 70.7422222,0.23275 55.6691667,0.0153125 C55.6263889,0.01225 55.2994444,0.006125 55.2383333,0.006125 C55.2383333,0.006125 55.2383333,0.006125 55.2352778,0.006125 C39.9422222,0.091875 27.5,13.97725 27.5,30.961875 C27.5,37.2185625 27.5,53.8356875 19.1033333,58.64075 C18.6602778,58.8949375 18.3761111,59.35125 18.3363889,59.859625 C18.2997222,60.368 18.5197222,60.864125 18.92,61.1795625 C19.3416667,61.50725 28.6611111,68.655125 40.1286111,66.4838125 C38.5947222,70.7039375 35.2580556,73.9501875 30.1736111,76.164375 C29.4372222,76.4859375 27.9705556,76.838125 26.2716667,77.242375 C18.5105556,79.092125 4.06083333,82.5374375 0.443055556,96.0675625 C0.226111111,96.8883125 0.708888889,97.724375 1.52472222,97.944875 C2.35277778,98.1500625 3.17777778,97.675375 3.39777778,96.86075 C6.54194444,85.0885 19.3386111,82.0413125 26.9805556,80.2160625 C28.8963889,79.75975 30.4088889,79.398375 31.3927778,78.9726875 C40.1072222,75.17825 42.9427778,69.083875 43.7891667,64.64325 C43.89,64.1134375 43.7066667,63.5683125 43.3033333,63.2130625 C42.9030556,62.85475 42.35,62.73225 41.8305556,62.8945625 C33.5591667,65.5038125 25.9172222,61.9145625 22.5775,59.9239375 C30.5555556,53.2293125 30.5555556,37.821875 30.5555556,30.961875 C30.5555556,15.6585625 41.635,3.1451875 55.3666667,3.0625 C55.3819444,3.0625 55.6783333,3.080875 55.6905556,3.080875 C69.2327778,3.2738125 79.4444444,15.533 79.4444444,31.598875 C79.4444444,38.4619375 79.4444444,53.9030625 87.4561111,60.5976875 C84.6969444,62.1779375 78.4055556,64.735125 67.8944444,63.473375 L67.8944444,63.473375 Z"></path>
            </g>
        </g>
    </g>
</svg>